<svg id="Layer_1" data-name="Layer 1" xmlns="http://www.w3.org/2000/svg" viewBox="0 0 171.06 235.24"><defs><style>.cls-1{fill:#0ca94b}.cls-2{fill:#fff}</style></defs><circle class="cls-1" cx="85.53" cy="149.71" r="85.53"/><path class="cls-2" d="M1260.8 134.43h-1.1l-3.64-11.65h1l3.23 10.93 3-10.93h1l3.05 10.95 3.27-10.95h.9l-3.64 11.65h-1.09l-2.35-8.17-.65-2.53-.66 2.53zm12.11-11.28a.74.74 0 1 1 .74.74.7.7 0 0 1-.74-.74zm1.18 11.28h-.88v-8.82h.88zm7.59-.56a2.83 2.83 0 0 1-2 .74 2.11 2.11 0 0 1-2.3-2.38v-5.86h-1.76v-.76h1.76v-2.21l.89-.25v2.46h3.32v.76h-3.32v5.73c0 1.12.54 1.7 1.55 1.7a2.08 2.08 0 0 0 1.54-.65zm8.85-5.17v5.73h-.88V129c0-1.93-1.06-2.79-2.58-2.79a3.11 3.11 0 0 0-3.16 3.27v5h-.91v-12.93h.88v5.8a3.38 3.38 0 0 1 3.25-1.92 3.07 3.07 0 0 1 3.4 3.27zm-51.2 23.39c0 2.88-1.55 4.59-4 4.59a3.3 3.3 0 0 1-3.28-2.15l-.06 2h-.79v-12.91h.88v5.93a3.38 3.38 0 0 1 3.25-2.05c2.45 0 4 1.71 4 4.59zm-.88 0c0-2.36-1.22-3.81-3.27-3.81-1.83 0-3 1.32-3.14 3.49v.64c.09 2.17 1.33 3.49 3.14 3.49 2.05 0 3.27-1.44 3.27-3.81zm3.83 2.28c0 1.08.32 1.48 1.11 1.48a2.48 2.48 0 0 0 1.17-.25l-.12.85a2.83 2.83 0 0 1-1.17.23c-1.25 0-1.87-.69-1.87-2.22v-10.84h.88zm11.36-2.28c0 2.86-1.59 4.59-4.21 4.59s-4.2-1.73-4.2-4.59 1.59-4.59 4.2-4.59 4.21 1.73 4.21 4.59zm-7.53 0c0 2.38 1.26 3.83 3.32 3.83s3.32-1.45 3.32-3.83-1.25-3.83-3.32-3.83-3.32 1.45-3.32 3.83zm16.89-2.21l-.83.39a2.65 2.65 0 0 0-2.77-2c-2 0-3.27 1.43-3.27 3.81s1.18 3.81 3.25 3.81a2.67 2.67 0 0 0 2.88-2.1l.81.29a3.61 3.61 0 0 1-3.67 2.59c-2.62 0-4.15-1.73-4.15-4.59s1.55-4.59 4.17-4.59a3.55 3.55 0 0 1 3.58 2.39zm4.92 1.95l-2.08 2v2.66h-.84v-12.87h.88v9.11l5.24-5h1.15l-3.66 3.53 3.8 5.29h-1.08zm12.75-1.95l-.83.39a2.65 2.65 0 0 0-2.77-2c-2 0-3.27 1.43-3.27 3.81s1.18 3.81 3.25 3.81a2.67 2.67 0 0 0 2.88-2.1l.81.29a3.61 3.61 0 0 1-3.67 2.59c-2.62 0-4.15-1.73-4.15-4.59s1.55-4.59 4.16-4.59a3.55 3.55 0 0 1 3.59 2.39zm9.5.89v5.73h-.88v-5.45c0-1.92-1.06-2.79-2.58-2.79a3.11 3.11 0 0 0-3.16 3.27v5h-.88v-12.91h.88v5.81a3.37 3.37 0 0 1 3.25-1.93 3.07 3.07 0 0 1 3.37 3.27zm10.4 5.03l-.06.7a1.78 1.78 0 0 1-.86.18c-.74 0-1.36-.3-1.45-1.5a3.72 3.72 0 0 1-3.19 1.5c-1.7 0-2.88-.78-2.88-2.24s1.06-2.24 3.35-2.65l2.7-.48v-.77a2.12 2.12 0 0 0-2.4-2.26 2.74 2.74 0 0 0-2.82 1.87l-.67-.5a3.42 3.42 0 0 1 3.49-2.15c2 0 3.29 1 3.29 2.93V155c0 .63.28.93.81.93a1.64 1.64 0 0 0 .69-.13zm-2.39-2.12V152l-2.41.44c-1.91.35-2.74 1-2.74 2s.78 1.46 2.06 1.46 3.09-.74 3.09-2.22zm3.45-8.46a.74.74 0 1 1 .74.75.7.7 0 0 1-.74-.75zm1.18 11.28h-.88v-8.82h.88zm10.19-5.72v5.72h-.88v-5.43c0-1.94-1.06-2.79-2.58-2.79a3.09 3.09 0 0 0-3.16 3.25v5h-.88v-8.82h.79v1.78a3.44 3.44 0 0 1 3.3-2 3.07 3.07 0 0 1 3.41 3.29zm4 5.57a2.65 2.65 0 0 1-1.52 2.41l-.5-.44a2.05 2.05 0 0 0 1.38-1.83.43.43 0 0 1-.41.18.74.74 0 0 1-.69-.78.82.82 0 0 1 .82-.81c.57-.02.92.51.92 1.27zm-89 16.51v5.72h-.89v-5.44c0-1.94-1-2.79-2.57-2.79a3.09 3.09 0 0 0-3.16 3.25v5h-.89v-8.83h.8v1.78a3.45 3.45 0 0 1 3.3-2 3.09 3.09 0 0 1 3.41 3.31zm10.45 1.3c0 2.86-1.59 4.59-4.2 4.59s-4.2-1.73-4.2-4.59 1.58-4.59 4.2-4.59 4.2 1.73 4.2 4.59zm-7.52 0c0 2.39 1.25 3.83 3.32 3.83s3.32-1.44 3.32-3.83-1.26-3.83-3.32-3.83-3.32 1.45-3.32 3.83zm22.35-8.47v12.89h-.79l-.06-2a3.32 3.32 0 0 1-3.28 2.15c-2.49 0-4-1.71-4-4.59s1.55-4.59 4-4.59a3.35 3.35 0 0 1 3.25 2.05v-5.93zm-.88 8.84v-.74c-.11-2.12-1.31-3.44-3.14-3.44-2 0-3.27 1.45-3.27 3.81s1.22 3.82 3.27 3.82c1.82.02 3.03-1.31 3.14-3.45zm10.89 0h-7c.13 2.18 1.35 3.45 3.31 3.45a2.91 2.91 0 0 0 2.87-1.63l.75.39a3.81 3.81 0 0 1-3.62 2c-2.62 0-4.17-1.73-4.17-4.59s1.48-4.59 4.06-4.59 3.85 1.8 3.85 4.38a4.26 4.26 0 0 1-.05.59zm-7-.79h6.22c-.12-2.1-1.18-3.39-3-3.39s-3.08 1.25-3.23 3.39zm9.94 2.7c0 1.08.31 1.48 1.11 1.48a2.56 2.56 0 0 0 1.16-.24l-.12.84a2.68 2.68 0 0 1-1.17.23c-1.25 0-1.87-.69-1.87-2.22v-10.84h.89zm10.82-1.91h-7c.12 2.18 1.34 3.45 3.3 3.45a2.91 2.91 0 0 0 2.88-1.63l.74.39a3.79 3.79 0 0 1-3.62 2c-2.61 0-4.17-1.73-4.17-4.59s1.49-4.59 4.06-4.59 3.85 1.8 3.85 4.38a4.51 4.51 0 0 1-.04.59zm-7-.79h6.21c-.12-2.1-1.18-3.39-3-3.39s-3.08 1.25-3.26 3.39zm13.8 4.26a2.85 2.85 0 0 1-2 .74 2.1 2.1 0 0 1-2.29-2.38v-5.86h-1.77v-.76h1.77v-2.21l.88-.24v2.45h3.32v.76h-3.32v5.74c0 1.11.55 1.69 1.55 1.69a2.08 2.08 0 0 0 1.54-.65zm1.04-10.7a.74.74 0 1 1 .74.74.71.71 0 0 1-.74-.74zm1.18 11.28h-.88v-8.83h.88zm10.56-4.42c0 2.86-1.59 4.59-4.2 4.59s-4.21-1.73-4.21-4.59 1.59-4.59 4.21-4.59 4.2 1.73 4.2 4.59zm-7.52 0c0 2.39 1.25 3.83 3.32 3.83s3.32-1.44 3.32-3.83-1.26-3.83-3.32-3.83-3.32 1.45-3.32 3.83zm17.16-1.3v5.72h-.88v-5.44c0-1.94-1.06-2.79-2.58-2.79a3.09 3.09 0 0 0-3.16 3.25v5h-.88v-8.83h.79v1.78a3.43 3.43 0 0 1 3.3-2 3.08 3.08 0 0 1 3.41 3.31zm15.54 1.3c0 2.86-1.59 4.59-4.2 4.59s-4.21-1.73-4.21-4.59 1.59-4.59 4.21-4.59 4.2 1.73 4.2 4.59zm-7.52 0c0 2.39 1.25 3.83 3.32 3.83s3.31-1.44 3.31-3.83-1.25-3.83-3.31-3.83-3.32 1.45-3.32 3.83zm14.47-4.29l-.22.83a1.77 1.77 0 0 0-1.13-.32c-1.33 0-2.58 1.35-2.58 3.25v5h-.83v-8.83h.74l.1 1.8a2.91 2.91 0 0 1 2.86-2 1.9 1.9 0 0 1 1.06.27zm-88.42 25.04v5.72h-.88V195a2.36 2.36 0 0 0-2.55-2.6 3.05 3.05 0 0 0-3.07 3.16v5.09h-.84V195a2.35 2.35 0 0 0-2.54-2.6 3.08 3.08 0 0 0-3.09 3.23v5h-.89v-8.83h.8v1.77a3.44 3.44 0 0 1 3.21-2 3.12 3.12 0 0 1 3.17 2.07 3.49 3.49 0 0 1 3.35-2.08 3.07 3.07 0 0 1 3.33 3.35zm10.45 1.32c0 2.86-1.59 4.59-4.2 4.59s-4.2-1.73-4.2-4.59 1.59-4.59 4.2-4.59 4.2 1.73 4.2 4.59zm-7.52 0c0 2.39 1.26 3.84 3.32 3.84s3.32-1.45 3.32-3.84-1.25-3.83-3.32-3.83-3.32 1.45-3.32 3.83zm17.27-8.47v12.89h-.79l-.06-2a3.32 3.32 0 0 1-3.28 2.15c-2.49 0-4-1.71-4-4.59s1.55-4.59 4-4.59a3.36 3.36 0 0 1 3.25 2.05v-5.93zm-.88 8.84v-.74c-.11-2.11-1.31-3.44-3.15-3.44-2 0-3.26 1.45-3.26 3.81s1.22 3.82 3.26 3.82c1.82 0 3.04-1.31 3.15-3.45zm3.28-7.23a.74.74 0 1 1 .74.74.7.7 0 0 1-.74-.74zm1.18 11.28h-.88v-8.83h.88zm4.21-8.83h3.1v.76h-3.1v8.07h-.89v-8.07h-1.76v-.76h1.76v-1.48a2.43 2.43 0 0 1 2.63-2.67 2 2 0 0 1 1.43.48l-.24.7a1.58 1.58 0 0 0-1.11-.38 1.71 1.71 0 0 0-1.82 2zm7.24 10.45c-.68 1.64-1.42 2.17-2.62 2.17a2 2 0 0 1-1.67-.65l.33-.76a1.52 1.52 0 0 0 1.34.64c.76 0 1.34-.32 1.86-1.61l.56-1.41-.92-2.19-2.8-6.64h1l2.7 6.69.44 1.18.48-1.27 2.6-6.6h1zm5.43-12.9a.75.75 0 1 1 .75.74.71.71 0 0 1-.75-.74zm1.19 11.28h-.89v-8.83h.89zm10.22-5.72v5.72h-.88v-5.44c0-1.94-1.06-2.79-2.58-2.79a3.09 3.09 0 0 0-3.16 3.25v5h-.88v-8.83h.79v1.78a3.43 3.43 0 0 1 3.3-2 3.08 3.08 0 0 1 3.41 3.31zm9.98 6.83c0 1.62-1.77 2.68-4.21 2.68-2.73 0-4.11-1-4.11-2.34a2 2 0 0 1 1.59-1.89 1.74 1.74 0 0 1-1.15-1.54 1.84 1.84 0 0 1 1.54-1.71 2.63 2.63 0 0 1-1.5-2.44c0-1.73 1.41-2.88 3.58-2.88a4.79 4.79 0 0 1 2 .41 2.07 2.07 0 0 1 2.2-1.85l.21.77c-1.09 0-1.76.5-1.85 1.43a2.65 2.65 0 0 1 1 2.12c0 1.75-1.42 2.9-3.57 2.9a6.49 6.49 0 0 1-1.2-.13c-1 .13-1.57.62-1.57 1.26s.6 1.2 1.91 1.2h2.27c1.8 0 2.86.79 2.86 2.01zm-.8.11c0-.83-.74-1.36-2.24-1.36h-2.28c-1.34 0-2.19.58-2.19 1.44 0 1.06 1.19 1.75 3.39 1.75 2.03 0 3.32-.79 3.32-1.83zm-3.46-5.19c1.66 0 2.68-.83 2.68-2.16s-1-2.13-2.68-2.13-2.7.83-2.7 2.13 1.04 2.16 2.7 2.16zm18.47-.45c0 2.86-1.59 4.59-4.2 4.59s-4.2-1.73-4.2-4.59 1.58-4.59 4.2-4.59 4.2 1.73 4.2 4.59zm-7.52 0c0 2.39 1.25 3.84 3.32 3.84s3.32-1.45 3.32-3.84-1.26-3.83-3.32-3.83-3.32 1.45-3.32 3.83zm10.92-4.41h3.11v.76H1320v8.07h-.88v-8.07h-1.76v-.76h1.76v-1.48a2.43 2.43 0 0 1 2.63-2.67 2 2 0 0 1 1.43.48l-.25.7a1.56 1.56 0 0 0-1.11-.38 1.71 1.71 0 0 0-1.82 2zm-103.65 26.86h-7c.13 2.17 1.35 3.44 3.31 3.44a2.9 2.9 0 0 0 2.87-1.62l.74.38a3.77 3.77 0 0 1-3.61 2c-2.62 0-4.17-1.73-4.17-4.59s1.48-4.59 4.06-4.59 3.85 1.8 3.85 4.37a4.42 4.42 0 0 1-.05.61zm-7-.8h6.22c-.13-2.1-1.18-3.39-3-3.39s-3.08 1.26-3.23 3.39zm23.02-.88v5.72h-.89v-5.63a2.35 2.35 0 0 0-2.54-2.59 3 3 0 0 0-3.07 3.16v5.08h-.87v-5.63a2.35 2.35 0 0 0-2.54-2.6 3.08 3.08 0 0 0-3.09 3.23v5h-.89v-8.83h.8v1.77a3.43 3.43 0 0 1 3.21-1.94 3.1 3.1 0 0 1 3.16 2.06 3.51 3.51 0 0 1 3.36-2.08 3.07 3.07 0 0 1 3.36 3.28zm10.4 5l-.06.71a1.78 1.78 0 0 1-.86.18c-.74 0-1.36-.3-1.45-1.5a3.72 3.72 0 0 1-3.19 1.5c-1.7 0-2.88-.78-2.88-2.25s1.06-2.24 3.35-2.64l2.7-.48v-.78a2.13 2.13 0 0 0-2.4-2.26 2.75 2.75 0 0 0-2.82 1.87l-.67-.49a3.41 3.41 0 0 1 3.49-2.15c2 0 3.29 1 3.29 2.93v4.55c0 .64.28.94.81.94a1.63 1.63 0 0 0 .69-.13zm-2.39-2.11v-1.65l-2.41.44c-1.91.36-2.74 1-2.74 2s.78 1.47 2.06 1.47 3.09-.77 3.09-2.25zm3.45-8.45a.74.74 0 1 1 .74.74.7.7 0 0 1-.74-.74zm1.18 11.28h-.88v-8.83h.88zm3.53-2.14c0 1.08.32 1.49 1.11 1.49a2.48 2.48 0 0 0 1.17-.25l-.12.85a2.83 2.83 0 0 1-1.17.23c-1.25 0-1.87-.69-1.87-2.23v-10.84h.88zm2.77.25l.73-.48c.37 1.2 1.55 1.77 3.07 1.77s2.56-.69 2.56-1.68-.62-1.34-2.63-1.69c-2.49-.44-3.37-1.11-3.37-2.51s1.36-2.52 3.39-2.52c1.83 0 3 .67 3.39 2.15l-.76.44a2.4 2.4 0 0 0-2.63-1.82c-1.45 0-2.51.76-2.51 1.66s.67 1.45 2.72 1.8c2.44.41 3.28 1.1 3.28 2.46s-1.36 2.49-3.55 2.49c-1.71 0-3.17-.67-3.69-2.07zm21.56-4.73l-.83.39a2.66 2.66 0 0 0-2.77-2c-2 0-3.27 1.43-3.27 3.82s1.19 3.81 3.25 3.81a2.68 2.68 0 0 0 2.88-2.1l.81.28a3.6 3.6 0 0 1-3.67 2.6c-2.61 0-4.15-1.73-4.15-4.59s1.56-4.59 4.17-4.59a3.54 3.54 0 0 1 3.58 2.38zm9.78 5.9l-.05.71a1.78 1.78 0 0 1-.86.18c-.74 0-1.36-.3-1.45-1.5a3.76 3.76 0 0 1-3.2 1.5c-1.69 0-2.87-.78-2.87-2.25s1.06-2.24 3.35-2.64l2.7-.48v-.78a2.13 2.13 0 0 0-2.4-2.26 2.74 2.74 0 0 0-2.82 1.87l-.67-.49a3.4 3.4 0 0 1 3.49-2.15c2 0 3.28 1 3.28 2.93v4.55c0 .64.29.94.82.94a1.59 1.59 0 0 0 .68-.13zm-2.38-2.11v-1.65l-2.42.44c-1.9.36-2.73 1-2.73 2s.77 1.47 2.06 1.47 3.09-.77 3.09-2.25zm11.25-2.89v5.72h-.88v-5.44c0-1.94-1.06-2.79-2.58-2.79a3.1 3.1 0 0 0-3.16 3.25v5h-.9v-8.83h.79v1.79a3.43 3.43 0 0 1 3.3-2 3.07 3.07 0 0 1 3.43 3.3zm16.21 4.91v.81h-8.25v-11.65h8v.81h-7.07v4.5h5.59v.83h-5.59v4.7zm6.27.81h-1l-4.5-11.65h.95l3.44 9 .62 1.8.62-1.8 3.46-9h.94zm14.49-.81v.81h-8.24v-11.65h8v.81h-7.08v4.5h5.6v.83h-5.6v4.7zm9.84.81l-3.34-5.05h-3.49v5.05h-.89v-11.65h4.33c2.31 0 3.81 1.25 3.81 3.3a3.11 3.11 0 0 1-2.77 3.19l3.39 5.16zm-6.83-5.88h3.42c1.89 0 2.91-.86 2.91-2.47s-1-2.49-2.91-2.49h-3.42zm-93.61 27.39a2.85 2.85 0 0 1-2 .74 2.11 2.11 0 0 1-2.29-2.39v-5.86h-1.77V236h1.77v-2.2l.88-.25V236h3.32v.76h-3.32v5.74c0 1.11.55 1.7 1.55 1.7a2 2 0 0 0 1.54-.66zm9.11-.15v.71a1.78 1.78 0 0 1-.86.18c-.75 0-1.36-.3-1.45-1.5a3.76 3.76 0 0 1-3.2 1.5c-1.69 0-2.87-.78-2.87-2.24s1.05-2.25 3.35-2.65l2.7-.48v-.78a2.13 2.13 0 0 0-2.4-2.26 2.74 2.74 0 0 0-2.82 1.88l-.68-.5a3.42 3.42 0 0 1 3.5-2.15c2 0 3.28 1 3.28 2.93v4.55c0 .64.29.94.82.94a1.59 1.59 0 0 0 .63-.13zm-2.38-2.11v-1.65l-2.42.45c-1.9.35-2.73 1-2.73 2s.77 1.46 2.06 1.46 3.1-.78 3.1-2.23zm6.72-1.86l-2.08 2v2.67h-.88V231.9h.88v9.1l5.24-5h1.15l-3.66 3.53 3.8 5.3h-1.08zm12.87.64h-7c.13 2.17 1.35 3.44 3.31 3.44a2.9 2.9 0 0 0 2.87-1.62l.74.39a3.78 3.78 0 0 1-3.61 2c-2.62 0-4.17-1.73-4.17-4.59s1.48-4.59 4.06-4.59 3.85 1.8 3.85 4.38a4.26 4.26 0 0 1-.05.59zm-7-.8h6.22c-.13-2.1-1.18-3.39-3-3.39s-3.08 1.26-3.23 3.44zm22.38.43c0 2.87-1.55 4.59-4 4.59a3.38 3.38 0 0 1-3.25-2.05v5.58h-.88V236h.79l.06 2a3.29 3.29 0 0 1 3.28-2.17c2.41-.04 4 1.67 4 4.55zm-.88 0c0-2.37-1.22-3.82-3.27-3.82-1.82 0-3 1.33-3.14 3.5v.64c.09 2.17 1.31 3.49 3.14 3.49 2.05 0 3.27-1.45 3.27-3.81zm3.83 2.27c0 1.08.32 1.49 1.11 1.49a2.48 2.48 0 0 0 1.17-.25l-.12.85a2.83 2.83 0 0 1-1.17.23c-1.25 0-1.87-.69-1.87-2.23V231.9h.88zm11.37 1.43l-.05.71a1.85 1.85 0 0 1-.87.18c-.74 0-1.36-.3-1.44-1.5a3.76 3.76 0 0 1-3.2 1.5c-1.69 0-2.88-.78-2.88-2.24s1.06-2.25 3.36-2.65l2.7-.48v-.78a2.13 2.13 0 0 0-2.4-2.26 2.76 2.76 0 0 0-2.83 1.88l-.67-.5a3.41 3.41 0 0 1 3.5-2.15c2 0 3.28 1 3.28 2.93v4.55c0 .64.28.94.81.94a1.6 1.6 0 0 0 .69-.13zm-2.38-2.11v-1.65l-2.42.45c-1.91.35-2.74 1-2.74 2s.78 1.46 2.07 1.46 3.09-.78 3.09-2.23zm10.93-3.8l-.83.39a2.66 2.66 0 0 0-2.77-2c-2 0-3.27 1.43-3.27 3.82s1.18 3.81 3.25 3.81a2.68 2.68 0 0 0 2.88-2.1l.81.28a3.61 3.61 0 0 1-3.67 2.6c-2.62 0-4.15-1.73-4.15-4.59s1.55-4.59 4.16-4.59a3.55 3.55 0 0 1 3.59 2.38zm9.3 2.58h-7c.13 2.17 1.35 3.44 3.31 3.44a2.9 2.9 0 0 0 2.87-1.62l.74.39a3.78 3.78 0 0 1-3.61 2c-2.62 0-4.17-1.73-4.17-4.59s1.48-4.59 4.06-4.59 3.85 1.8 3.85 4.38a4.26 4.26 0 0 1-.05.59zm-7-.8h6.24c-.13-2.1-1.18-3.39-3-3.39s-3.1 1.26-3.25 3.44zm10.24 4.19a.8.8 0 1 1-.79-.8.75.75 0 0 1 .79.8z" transform="translate(-1188.25 -38.21)"/><path class="cls-1" d="M109.06 80.66h13.48v13.48h-13.48zm0-80.66h13.48v13.48h-13.48zm13.48 26.71h13.48v13.48h-13.48zm-13.48 27h13.48v13.48h-13.48zm13.48 13.48h13.48v13.48h-13.48z"/><path class="cls-2" d="M109.06 67.19h13.48v13.48h-13.48z"/></svg>