<svg id="Layer_1" data-name="Layer 1" xmlns="http://www.w3.org/2000/svg" viewBox="0 0 171.06 235.24"><defs><style>.cls-1{fill:#0ca94b;}.cls-2{fill:#fff;}</style></defs><title>Email_Quote</title><circle class="cls-1" cx="85.53" cy="149.71" r="85.53"/><path class="cls-2" d="M1260.8,134.43h-1.1l-3.64-11.65h1l3.23,10.93,3-10.93h1l3.05,10.95,3.27-10.95h.9l-3.64,11.65h-1.09l-2.35-8.17-.65-2.53h0l-.66,2.53Z" transform="translate(-1188.25 -38.21)"/><path class="cls-2" d="M1272.91,123.15a.74.74,0,1,1,.74.74A.7.7,0,0,1,1272.91,123.15Zm1.18,11.28h-.88v-8.82h.88Z" transform="translate(-1188.25 -38.21)"/><path class="cls-2" d="M1281.68,133.87a2.83,2.83,0,0,1-2,.74,2.11,2.11,0,0,1-2.3-2.38v-5.86h-1.76v-.76h1.76V123.4l.89-.25v2.46h3.32v.76h-3.32v5.73c0,1.12.54,1.7,1.55,1.7a2.08,2.08,0,0,0,1.54-.65Z" transform="translate(-1188.25 -38.21)"/><path class="cls-2" d="M1290.53,128.7v5.73h-.88V129c0-1.93-1.06-2.79-2.58-2.79a3.11,3.11,0,0,0-3.16,3.27v5H1283V121.55h.88v5.8a3.38,3.38,0,0,1,3.25-1.92A3.07,3.07,0,0,1,1290.53,128.7Z" transform="translate(-1188.25 -38.21)"/><path class="cls-2" d="M1239.33,152.09c0,2.88-1.55,4.59-4,4.59a3.3,3.3,0,0,1-3.28-2.15l-.06,2h-.79V143.62h.88v5.93a3.38,3.38,0,0,1,3.25-2.05C1237.78,147.5,1239.33,149.21,1239.33,152.09Zm-.88,0c0-2.36-1.22-3.81-3.27-3.81-1.83,0-3,1.32-3.14,3.49v.64c.09,2.17,1.33,3.49,3.14,3.49C1237.23,155.9,1238.45,154.46,1238.45,152.09Z" transform="translate(-1188.25 -38.21)"/><path class="cls-2" d="M1242.28,154.37c0,1.08.32,1.48,1.11,1.48a2.48,2.48,0,0,0,1.17-.25l-.12.85a2.83,2.83,0,0,1-1.17.23c-1.25,0-1.87-.69-1.87-2.22V143.62h.88Z" transform="translate(-1188.25 -38.21)"/><path class="cls-2" d="M1253.64,152.09c0,2.86-1.59,4.59-4.21,4.59s-4.2-1.73-4.2-4.59,1.59-4.59,4.2-4.59S1253.64,149.23,1253.64,152.09Zm-7.53,0c0,2.38,1.26,3.83,3.32,3.83s3.32-1.45,3.32-3.83-1.25-3.83-3.32-3.83S1246.11,149.71,1246.11,152.09Z" transform="translate(-1188.25 -38.21)"/><path class="cls-2" d="M1263,149.88l-.83.39a2.65,2.65,0,0,0-2.77-2c-2,0-3.27,1.43-3.27,3.81s1.18,3.81,3.25,3.81a2.67,2.67,0,0,0,2.88-2.1l.81.29a3.61,3.61,0,0,1-3.67,2.59c-2.62,0-4.15-1.73-4.15-4.59s1.55-4.59,4.17-4.59A3.55,3.55,0,0,1,1263,149.88Z" transform="translate(-1188.25 -38.21)"/><path class="cls-2" d="M1267.92,151.83l-2.08,2v2.66H1265V143.62h.88v9.11l5.24-5h1.15l-3.66,3.53,3.8,5.29h-1.08Z" transform="translate(-1188.25 -38.21)"/><path class="cls-2" d="M1280.67,149.88l-.83.39a2.65,2.65,0,0,0-2.77-2c-2,0-3.27,1.43-3.27,3.81s1.18,3.81,3.25,3.81a2.67,2.67,0,0,0,2.88-2.1l.81.29a3.61,3.61,0,0,1-3.67,2.59c-2.62,0-4.15-1.73-4.15-4.59s1.55-4.59,4.16-4.59A3.55,3.55,0,0,1,1280.67,149.88Z" transform="translate(-1188.25 -38.21)"/><path class="cls-2" d="M1290.17,150.77v5.73h-.88v-5.45c0-1.92-1.06-2.79-2.58-2.79a3.11,3.11,0,0,0-3.16,3.27v5h-.88V143.62h.88v5.81a3.37,3.37,0,0,1,3.25-1.93A3.07,3.07,0,0,1,1290.17,150.77Z" transform="translate(-1188.25 -38.21)"/><path class="cls-2" d="M1300.57,155.8l-.06.7a1.78,1.78,0,0,1-.86.18c-.74,0-1.36-.3-1.45-1.5a3.72,3.72,0,0,1-3.19,1.5c-1.7,0-2.88-.78-2.88-2.24s1.06-2.24,3.35-2.65l2.7-.48v-.77a2.12,2.12,0,0,0-2.4-2.26,2.74,2.74,0,0,0-2.82,1.87l-.67-.5a3.42,3.42,0,0,1,3.49-2.15c2,0,3.29,1,3.29,2.93V155c0,.63.28.93.81.93A1.64,1.64,0,0,0,1300.57,155.8Zm-2.39-2.12V152l-2.41.44c-1.91.35-2.74,1-2.74,2s.78,1.46,2.06,1.46S1298.18,155.16,1298.18,153.68Z" transform="translate(-1188.25 -38.21)"/><path class="cls-2" d="M1301.63,145.22a.74.74,0,1,1,.74.75A.7.7,0,0,1,1301.63,145.22Zm1.18,11.28h-.88v-8.82h.88Z" transform="translate(-1188.25 -38.21)"/><path class="cls-2" d="M1313,150.78v5.72h-.88v-5.43c0-1.94-1.06-2.79-2.58-2.79a3.09,3.09,0,0,0-3.16,3.25v5h-.88v-8.82h.79l0,1.78a3.44,3.44,0,0,1,3.3-2A3.07,3.07,0,0,1,1313,150.78Z" transform="translate(-1188.25 -38.21)"/><path class="cls-2" d="M1317,156.35a2.65,2.65,0,0,1-1.52,2.41l-.5-.44a2.05,2.05,0,0,0,1.38-1.83l0,0a.43.43,0,0,1-.41.18.74.74,0,0,1-.69-.78.82.82,0,0,1,.82-.81C1316.65,155.06,1317,155.59,1317,156.35Z" transform="translate(-1188.25 -38.21)"/><path class="cls-2" d="M1228,172.86v5.72h-.89v-5.44c0-1.94-1-2.79-2.57-2.79a3.09,3.09,0,0,0-3.16,3.25v5h-.89v-8.83h.8l0,1.78a3.45,3.45,0,0,1,3.3-2A3.09,3.09,0,0,1,1228,172.86Z" transform="translate(-1188.25 -38.21)"/><path class="cls-2" d="M1238.45,174.16c0,2.86-1.59,4.59-4.2,4.59s-4.2-1.73-4.2-4.59,1.58-4.59,4.2-4.59S1238.45,171.3,1238.45,174.16Zm-7.52,0c0,2.39,1.25,3.83,3.32,3.83s3.32-1.44,3.32-3.83-1.26-3.83-3.32-3.83S1230.93,171.78,1230.93,174.16Z" transform="translate(-1188.25 -38.21)"/><path class="cls-2" d="M1253.28,165.69v12.89h-.79l-.06-2a3.32,3.32,0,0,1-3.28,2.15c-2.49,0-4-1.71-4-4.59s1.55-4.59,4-4.59a3.35,3.35,0,0,1,3.25,2.05v-5.93Zm-.88,8.84v-.74c-.11-2.12-1.31-3.44-3.14-3.44-2,0-3.27,1.45-3.27,3.81s1.22,3.82,3.27,3.82C1251.08,178,1252.29,176.67,1252.4,174.53Z" transform="translate(-1188.25 -38.21)"/><path class="cls-2" d="M1263.29,174.53h-7c.13,2.18,1.35,3.45,3.31,3.45a2.91,2.91,0,0,0,2.87-1.63l.75.39a3.81,3.81,0,0,1-3.62,2c-2.62,0-4.17-1.73-4.17-4.59s1.48-4.59,4.06-4.59,3.85,1.8,3.85,4.38A4.26,4.26,0,0,1,1263.29,174.53Zm-7-.79h6.22c-.12-2.1-1.18-3.39-3-3.39S1256.43,171.6,1256.28,173.74Z" transform="translate(-1188.25 -38.21)"/><path class="cls-2" d="M1266.23,176.44c0,1.08.31,1.48,1.11,1.48a2.56,2.56,0,0,0,1.16-.24l-.12.84a2.68,2.68,0,0,1-1.17.23c-1.25,0-1.87-.69-1.87-2.22V165.69h.89Z" transform="translate(-1188.25 -38.21)"/><path class="cls-2" d="M1277.05,174.53h-7c.12,2.18,1.34,3.45,3.3,3.45a2.91,2.91,0,0,0,2.88-1.63l.74.39a3.79,3.79,0,0,1-3.62,2c-2.61,0-4.17-1.73-4.17-4.59s1.49-4.59,4.06-4.59,3.85,1.8,3.85,4.38A4.51,4.51,0,0,1,1277.05,174.53Zm-7-.79h6.21c-.12-2.1-1.18-3.39-3-3.39S1270.18,171.6,1270,173.74Z" transform="translate(-1188.25 -38.21)"/><path class="cls-2" d="M1283.85,178a2.85,2.85,0,0,1-2,.74,2.1,2.1,0,0,1-2.29-2.38v-5.86h-1.77v-.76h1.77v-2.21l.88-.24v2.45h3.32v.76h-3.32v5.74c0,1.11.55,1.69,1.55,1.69a2.08,2.08,0,0,0,1.54-.65Z" transform="translate(-1188.25 -38.21)"/><path class="cls-2" d="M1284.89,167.3a.74.74,0,1,1,.74.74A.71.71,0,0,1,1284.89,167.3Zm1.18,11.28h-.88v-8.83h.88Z" transform="translate(-1188.25 -38.21)"/><path class="cls-2" d="M1296.63,174.16c0,2.86-1.59,4.59-4.2,4.59s-4.21-1.73-4.21-4.59,1.59-4.59,4.21-4.59S1296.63,171.3,1296.63,174.16Zm-7.52,0c0,2.39,1.25,3.83,3.32,3.83s3.32-1.44,3.32-3.83-1.26-3.83-3.32-3.83S1289.11,171.78,1289.11,174.16Z" transform="translate(-1188.25 -38.21)"/><path class="cls-2" d="M1306.27,172.86v5.72h-.88v-5.44c0-1.94-1.06-2.79-2.58-2.79a3.09,3.09,0,0,0-3.16,3.25v5h-.88v-8.83h.79l0,1.78a3.43,3.43,0,0,1,3.3-2A3.08,3.08,0,0,1,1306.27,172.86Z" transform="translate(-1188.25 -38.21)"/><path class="cls-2" d="M1321.81,174.16c0,2.86-1.59,4.59-4.2,4.59s-4.21-1.73-4.21-4.59,1.59-4.59,4.21-4.59S1321.81,171.3,1321.81,174.16Zm-7.52,0c0,2.39,1.25,3.83,3.32,3.83s3.31-1.44,3.31-3.83-1.25-3.83-3.31-3.83S1314.29,171.78,1314.29,174.16Z" transform="translate(-1188.25 -38.21)"/><path class="cls-2" d="M1328.76,169.87l-.22.83a1.77,1.77,0,0,0-1.13-.32c-1.33,0-2.58,1.35-2.58,3.25v5H1324v-8.83h.74l.1,1.8a2.91,2.91,0,0,1,2.86-2A1.9,1.9,0,0,1,1328.76,169.87Z" transform="translate(-1188.25 -38.21)"/><path class="cls-2" d="M1240.34,194.91v5.72h-.88V195a2.36,2.36,0,0,0-2.55-2.6,3.05,3.05,0,0,0-3.07,3.16v5.09H1233V195a2.35,2.35,0,0,0-2.54-2.6,3.08,3.08,0,0,0-3.09,3.23v5h-.89v-8.83h.8l0,1.77a3.44,3.44,0,0,1,3.21-2,3.12,3.12,0,0,1,3.17,2.07,3.49,3.49,0,0,1,3.35-2.08A3.07,3.07,0,0,1,1240.34,194.91Z" transform="translate(-1188.25 -38.21)"/><path class="cls-2" d="M1250.79,196.23c0,2.86-1.59,4.59-4.2,4.59s-4.2-1.73-4.2-4.59,1.59-4.59,4.2-4.59S1250.79,193.37,1250.79,196.23Zm-7.52,0c0,2.39,1.26,3.84,3.32,3.84s3.32-1.45,3.32-3.84-1.25-3.83-3.32-3.83S1243.27,193.85,1243.27,196.23Z" transform="translate(-1188.25 -38.21)"/><path class="cls-2" d="M1260.54,187.76v12.89h-.79l-.06-2a3.32,3.32,0,0,1-3.28,2.15c-2.49,0-4-1.71-4-4.59s1.55-4.59,4-4.59a3.36,3.36,0,0,1,3.25,2.05v-5.93Zm-.88,8.84v-.74c-.11-2.11-1.31-3.44-3.15-3.44-2,0-3.26,1.45-3.26,3.81s1.22,3.82,3.26,3.82C1258.33,200.05,1259.55,198.74,1259.66,196.6Z" transform="translate(-1188.25 -38.21)"/><path class="cls-2" d="M1262.94,189.37a.74.74,0,1,1,.74.74A.7.7,0,0,1,1262.94,189.37Zm1.18,11.28h-.88v-8.83h.88Z" transform="translate(-1188.25 -38.21)"/><path class="cls-2" d="M1268.33,191.82h3.1v.76h-3.1v8.07h-.89v-8.07h-1.76v-.76h1.76v-1.48a2.43,2.43,0,0,1,2.63-2.67,2,2,0,0,1,1.43.48l-.24.7a1.58,1.58,0,0,0-1.11-.38,1.71,1.71,0,0,0-1.82,2Z" transform="translate(-1188.25 -38.21)"/><path class="cls-2" d="M1275.57,202.27c-.68,1.64-1.42,2.17-2.62,2.17a2,2,0,0,1-1.67-.65l.33-.76a1.52,1.52,0,0,0,1.34.64c.76,0,1.34-.32,1.86-1.61l.56-1.41-.92-2.19-2.8-6.64h1l2.7,6.69.44,1.18.48-1.27,2.6-6.6h1Z" transform="translate(-1188.25 -38.21)"/><path class="cls-2" d="M1281,189.37a.75.75,0,1,1,.75.74A.71.71,0,0,1,1281,189.37Zm1.19,11.28h-.89v-8.83h.89Z" transform="translate(-1188.25 -38.21)"/><path class="cls-2" d="M1292.41,194.93v5.72h-.88v-5.44c0-1.94-1.06-2.79-2.58-2.79a3.09,3.09,0,0,0-3.16,3.25v5h-.88v-8.83h.79l0,1.78a3.43,3.43,0,0,1,3.3-2A3.08,3.08,0,0,1,1292.41,194.93Z" transform="translate(-1188.25 -38.21)"/><path class="cls-2" d="M1302.39,201.76c0,1.62-1.77,2.68-4.21,2.68-2.73,0-4.11-1-4.11-2.34a2,2,0,0,1,1.59-1.89,1.74,1.74,0,0,1-1.15-1.54,1.84,1.84,0,0,1,1.54-1.71,2.63,2.63,0,0,1-1.5-2.44c0-1.73,1.41-2.88,3.58-2.88a4.79,4.79,0,0,1,2,.41,2.07,2.07,0,0,1,2.2-1.85l.21.77c-1.09,0-1.76.5-1.85,1.43a2.65,2.65,0,0,1,1,2.12c0,1.75-1.42,2.9-3.57,2.9a6.49,6.49,0,0,1-1.2-.13c-1,.13-1.57.62-1.57,1.26s.6,1.2,1.91,1.2h2.27C1301.33,199.75,1302.39,200.54,1302.39,201.76Zm-.8.11c0-.83-.74-1.36-2.24-1.36h-2.28c-1.34,0-2.19.58-2.19,1.44,0,1.06,1.19,1.75,3.39,1.75C1300.3,203.7,1301.59,202.91,1301.59,201.87Zm-3.46-5.19c1.66,0,2.68-.83,2.68-2.16s-1-2.13-2.68-2.13-2.7.83-2.7,2.13S1296.47,196.68,1298.13,196.68Z" transform="translate(-1188.25 -38.21)"/><path class="cls-2" d="M1316.6,196.23c0,2.86-1.59,4.59-4.2,4.59s-4.2-1.73-4.2-4.59,1.58-4.59,4.2-4.59S1316.6,193.37,1316.6,196.23Zm-7.52,0c0,2.39,1.25,3.84,3.32,3.84s3.32-1.45,3.32-3.84-1.26-3.83-3.32-3.83S1309.08,193.85,1309.08,196.23Z" transform="translate(-1188.25 -38.21)"/><path class="cls-2" d="M1320,191.82h3.11v.76H1320v8.07h-.88v-8.07h-1.76v-.76h1.76v-1.48a2.43,2.43,0,0,1,2.63-2.67,2,2,0,0,1,1.43.48l-.25.7a1.56,1.56,0,0,0-1.11-.38,1.71,1.71,0,0,0-1.82,2Z" transform="translate(-1188.25 -38.21)"/><path class="cls-2" d="M1216.35,218.68h-7c.13,2.17,1.35,3.44,3.31,3.44a2.9,2.9,0,0,0,2.87-1.62l.74.38a3.77,3.77,0,0,1-3.61,2c-2.62,0-4.17-1.73-4.17-4.59s1.48-4.59,4.06-4.59,3.85,1.8,3.85,4.37A4.42,4.42,0,0,1,1216.35,218.68Zm-7-.8h6.22c-.13-2.1-1.18-3.39-3-3.39S1209.49,215.75,1209.34,217.88Z" transform="translate(-1188.25 -38.21)"/><path class="cls-2" d="M1232.37,217v5.72h-.89v-5.63a2.35,2.35,0,0,0-2.54-2.59,3,3,0,0,0-3.07,3.16v5.08H1225v-5.63a2.35,2.35,0,0,0-2.54-2.6,3.08,3.08,0,0,0-3.09,3.23v5h-.89v-8.83h.8l0,1.77a3.43,3.43,0,0,1,3.21-1.94,3.1,3.1,0,0,1,3.16,2.06,3.51,3.51,0,0,1,3.36-2.08A3.07,3.07,0,0,1,1232.37,217Z" transform="translate(-1188.25 -38.21)"/><path class="cls-2" d="M1242.77,222l-.06.71a1.78,1.78,0,0,1-.86.18c-.74,0-1.36-.3-1.45-1.5a3.72,3.72,0,0,1-3.19,1.5c-1.7,0-2.88-.78-2.88-2.25s1.06-2.24,3.35-2.64l2.7-.48v-.78a2.13,2.13,0,0,0-2.4-2.26,2.75,2.75,0,0,0-2.82,1.87l-.67-.49a3.41,3.41,0,0,1,3.49-2.15c2,0,3.29,1,3.29,2.93v4.55c0,.64.28.94.81.94A1.63,1.63,0,0,0,1242.77,222Zm-2.39-2.11v-1.65l-2.41.44c-1.91.36-2.74,1-2.74,2s.78,1.47,2.06,1.47S1240.38,221.38,1240.38,219.9Z" transform="translate(-1188.25 -38.21)"/><path class="cls-2" d="M1243.83,211.44a.74.74,0,1,1,.74.74A.7.7,0,0,1,1243.83,211.44Zm1.18,11.28h-.88v-8.83h.88Z" transform="translate(-1188.25 -38.21)"/><path class="cls-2" d="M1248.54,220.58c0,1.08.32,1.49,1.11,1.49a2.48,2.48,0,0,0,1.17-.25l-.12.85a2.83,2.83,0,0,1-1.17.23c-1.25,0-1.87-.69-1.87-2.23V209.83h.88Z" transform="translate(-1188.25 -38.21)"/><path class="cls-2" d="M1251.31,220.83l.73-.48c.37,1.2,1.55,1.77,3.07,1.77s2.56-.69,2.56-1.68-.62-1.34-2.63-1.69c-2.49-.44-3.37-1.11-3.37-2.51s1.36-2.52,3.39-2.52c1.83,0,3,.67,3.39,2.15l-.76.44a2.4,2.4,0,0,0-2.63-1.82c-1.45,0-2.51.76-2.51,1.66s.67,1.45,2.72,1.8c2.44.41,3.28,1.1,3.28,2.46s-1.36,2.49-3.55,2.49C1253.29,222.9,1251.83,222.23,1251.31,220.83Z" transform="translate(-1188.25 -38.21)"/><path class="cls-2" d="M1272.87,216.1l-.83.39a2.66,2.66,0,0,0-2.77-2c-2,0-3.27,1.43-3.27,3.82s1.19,3.81,3.25,3.81a2.68,2.68,0,0,0,2.88-2.1l.81.28a3.6,3.6,0,0,1-3.67,2.6c-2.61,0-4.15-1.73-4.15-4.59s1.56-4.59,4.17-4.59A3.54,3.54,0,0,1,1272.87,216.1Z" transform="translate(-1188.25 -38.21)"/><path class="cls-2" d="M1282.65,222l-.05.71a1.78,1.78,0,0,1-.86.18c-.74,0-1.36-.3-1.45-1.5a3.76,3.76,0,0,1-3.2,1.5c-1.69,0-2.87-.78-2.87-2.25s1.06-2.24,3.35-2.64l2.7-.48v-.78a2.13,2.13,0,0,0-2.4-2.26,2.74,2.74,0,0,0-2.82,1.87l-.67-.49a3.4,3.4,0,0,1,3.49-2.15c2,0,3.28,1,3.28,2.93v4.55c0,.64.29.94.82.94A1.59,1.59,0,0,0,1282.65,222Zm-2.38-2.11v-1.65l-2.42.44c-1.9.36-2.73,1-2.73,2s.77,1.47,2.06,1.47S1280.27,221.38,1280.27,219.9Z" transform="translate(-1188.25 -38.21)"/><path class="cls-2" d="M1291.52,217v5.72h-.88v-5.44c0-1.94-1.06-2.79-2.58-2.79a3.1,3.1,0,0,0-3.16,3.25v5H1284v-8.83h.79l0,1.79a3.43,3.43,0,0,1,3.3-2A3.07,3.07,0,0,1,1291.52,217Z" transform="translate(-1188.25 -38.21)"/><path class="cls-2" d="M1307.73,221.91v.81h-8.25V211.07h8v.81h-7.07v4.5H1306v.83h-5.59v4.7Z" transform="translate(-1188.25 -38.21)"/><path class="cls-2" d="M1314,222.72h-1l-4.5-11.65h.95l3.44,9,.62,1.8.62-1.8,3.46-9h.94Z" transform="translate(-1188.25 -38.21)"/><path class="cls-2" d="M1328.49,221.91v.81h-8.24V211.07h8v.81h-7.08v4.5h5.6v.83h-5.6v4.7Z" transform="translate(-1188.25 -38.21)"/><path class="cls-2" d="M1338.33,222.72l-3.34-5.05h-3.49v5.05h-.89V211.07h4.33c2.31,0,3.81,1.25,3.81,3.3a3.11,3.11,0,0,1-2.77,3.19l3.39,5.16Zm-6.83-5.88h3.42c1.89,0,2.91-.86,2.91-2.47s-1-2.49-2.91-2.49h-3.42Z" transform="translate(-1188.25 -38.21)"/><path class="cls-2" d="M1237.89,244.23a2.85,2.85,0,0,1-2,.74,2.11,2.11,0,0,1-2.29-2.39v-5.86h-1.77V236h1.77v-2.2l.88-.25V236h3.32v.76h-3.32v5.74c0,1.11.55,1.7,1.55,1.7a2,2,0,0,0,1.54-.66Z" transform="translate(-1188.25 -38.21)"/><path class="cls-2" d="M1247,244.08l0,.71a1.78,1.78,0,0,1-.86.18c-.75,0-1.36-.3-1.45-1.5a3.76,3.76,0,0,1-3.2,1.5c-1.69,0-2.87-.78-2.87-2.24s1.05-2.25,3.35-2.65l2.7-.48v-.78a2.13,2.13,0,0,0-2.4-2.26,2.74,2.74,0,0,0-2.82,1.88l-.68-.5a3.42,3.42,0,0,1,3.5-2.15c2,0,3.28,1,3.28,2.93v4.55c0,.64.29.94.82.94A1.59,1.59,0,0,0,1247,244.08Zm-2.38-2.11v-1.65l-2.42.45c-1.9.35-2.73,1-2.73,2s.77,1.46,2.06,1.46S1244.63,243.45,1244.63,242Z" transform="translate(-1188.25 -38.21)"/><path class="cls-2" d="M1251.34,240.11l-2.08,2v2.67h-.88V231.9h.88V241l5.24-5h1.15l-3.66,3.53,3.8,5.3h-1.08Z" transform="translate(-1188.25 -38.21)"/><path class="cls-2" d="M1264.21,240.75h-7c.13,2.17,1.35,3.44,3.31,3.44a2.9,2.9,0,0,0,2.87-1.62l.74.39a3.78,3.78,0,0,1-3.61,2c-2.62,0-4.17-1.73-4.17-4.59s1.48-4.59,4.06-4.59,3.85,1.8,3.85,4.38A4.26,4.26,0,0,1,1264.21,240.75Zm-7-.8h6.22c-.13-2.1-1.18-3.39-3-3.39S1257.35,237.82,1257.2,240Z" transform="translate(-1188.25 -38.21)"/><path class="cls-2" d="M1279.59,240.38c0,2.87-1.55,4.59-4,4.59a3.38,3.38,0,0,1-3.25-2.05v5.58h-.88V236h.79l.06,2a3.29,3.29,0,0,1,3.28-2.17C1278,235.79,1279.59,237.5,1279.59,240.38Zm-.88,0c0-2.37-1.22-3.82-3.27-3.82-1.82,0-3,1.33-3.14,3.5v.64c.09,2.17,1.31,3.49,3.14,3.49C1277.49,244.19,1278.71,242.74,1278.71,240.38Z" transform="translate(-1188.25 -38.21)"/><path class="cls-2" d="M1282.54,242.65c0,1.08.32,1.49,1.11,1.49a2.48,2.48,0,0,0,1.17-.25l-.12.85a2.83,2.83,0,0,1-1.17.23c-1.25,0-1.87-.69-1.87-2.23V231.9h.88Z" transform="translate(-1188.25 -38.21)"/><path class="cls-2" d="M1293.91,244.08l-.05.71a1.85,1.85,0,0,1-.87.18c-.74,0-1.36-.3-1.44-1.5a3.76,3.76,0,0,1-3.2,1.5c-1.69,0-2.88-.78-2.88-2.24s1.06-2.25,3.36-2.65l2.7-.48v-.78a2.13,2.13,0,0,0-2.4-2.26,2.76,2.76,0,0,0-2.83,1.88l-.67-.5a3.41,3.41,0,0,1,3.5-2.15c2,0,3.28,1,3.28,2.93v4.55c0,.64.28.94.81.94A1.6,1.6,0,0,0,1293.91,244.08Zm-2.38-2.11v-1.65l-2.42.45c-1.91.35-2.74,1-2.74,2s.78,1.46,2.07,1.46S1291.53,243.45,1291.53,242Z" transform="translate(-1188.25 -38.21)"/><path class="cls-2" d="M1302.46,238.17l-.83.39a2.66,2.66,0,0,0-2.77-2c-2,0-3.27,1.43-3.27,3.82s1.18,3.81,3.25,3.81a2.68,2.68,0,0,0,2.88-2.1l.81.28a3.61,3.61,0,0,1-3.67,2.6c-2.62,0-4.15-1.73-4.15-4.59s1.55-4.59,4.16-4.59A3.55,3.55,0,0,1,1302.46,238.17Z" transform="translate(-1188.25 -38.21)"/><path class="cls-2" d="M1311.76,240.75h-7c.13,2.17,1.35,3.44,3.31,3.44a2.9,2.9,0,0,0,2.87-1.62l.74.39a3.78,3.78,0,0,1-3.61,2c-2.62,0-4.17-1.73-4.17-4.59s1.48-4.59,4.06-4.59,3.85,1.8,3.85,4.38A4.26,4.26,0,0,1,1311.76,240.75Zm-7-.8H1311c-.13-2.1-1.18-3.39-3-3.39S1304.9,237.82,1304.75,240Z" transform="translate(-1188.25 -38.21)"/><path class="cls-2" d="M1315,244.14a.8.8,0,1,1-.79-.8A.75.75,0,0,1,1315,244.14Z" transform="translate(-1188.25 -38.21)"/><rect class="cls-1" x="109.06" y="80.66" width="13.48" height="13.48"/><rect class="cls-1" x="109.06" width="13.48" height="13.48"/><rect class="cls-1" x="122.54" y="26.71" width="13.48" height="13.48"/><rect class="cls-1" x="109.06" y="53.71" width="13.48" height="13.48"/><rect class="cls-1" x="122.54" y="67.19" width="13.48" height="13.48"/><rect class="cls-2" x="109.06" y="67.19" width="13.48" height="13.48"/></svg>